<mxfile host="app.diagrams.net" modified="2023-09-22T06:26:57.810Z" agent="Mozilla/5.0 (Windows NT 10.0; Win64; x64) AppleWebKit/537.36 (KHTML, like Gecko) Chrome/117.0.0.0 Safari/537.36" version="21.6.8" etag="7zxa6ddcfaEWpiAw_sGR" type="github">
  <diagram name="Page-1" id="B3YHmjAteisi9BXnJjqK">
    <mxGraphModel>
      <root>
        <mxCell id="0" />
        <mxCell id="1" parent="0" />
      </root>
    </mxGraphModel>
  </diagram>
</mxfile>
